<svg xmlns="http://www.w3.org/2000/svg" viewBox="0 0 426.33 41.21"><defs><style>.cls-1{fill:#231f20;}</style></defs><polygon class="cls-1" points="147.7 37.09 148.75 35.15 37.02 35.15 38.04 37.09 38.04 38.97 37.02 40.91 148.75 40.91 147.7 38.97 147.7 37.09"/><path class="cls-1" d="M390.16,365.59h-25l1.4-4.49V330.76l-1.4-4.49h25l6.18,6.18V340l-4.21,4.21,4.78,4.78v9.83Zm-4.66-28.42-.92-1.86-1.86-.93h-5.25l-.62.62v5.57l.62.61h5.25l1.86-.93.92-1.85Zm.3,14.84-.93-1.85-2.47-1.24h-4.94l-.62.62v6.79l.92.93h4.64l2.47-1.23.93-1.86Z" transform="translate(-365.17 -324.66)"/><path class="cls-1" d="M553.64,365.87h-5.9l-5.61-5.62V353l-.57-.56h-4.77l-.57.56v8.15l1.41,4.49H524.15l1.4-4.49V330.76l-1.4-4.49h24.43l7.31,7.3V344l-4.78,4.77,1.41,1.41v4.21l2,2,3.37,1.12Zm-8.71-27.25-1.12-2.24-2.25-1.13h-4.77l-.57.57v7l.57.56h4.77l2.25-1.12,1.12-2.25Z" transform="translate(-365.17 -324.66)"/><path class="cls-1" d="M562.91,365.59l1.4-4.49V330.76l-1.4-4.49h13.76l-1.4,4.49V361.1l1.4,4.49Z" transform="translate(-365.17 -324.66)"/><path class="cls-1" d="M604.62,365.59l1.12-4.49V360l-10.66-16L594,341.15l.28,2.81V361.1l1.4,4.49H583.27l1.41-4.49V330.76L583,326.27h12.08L604.9,341l1.13,2.64-.29-2.7V330.76l-1.4-4.49h12.08l-1.4,4.49V361.1l1.4,4.49Z" transform="translate(-365.17 -324.66)"/><path class="cls-1" d="M653.07,347.05v11.8L650.83,360l-5.62,5.62H630l-7.3-7.3V334.13l7.86-7.86h18l3.82,11.51-6.74-2.25h-6.91l-3.37,1.69L634,340V353l1.12,2.25,2.26,1.12H641l1.68-1.68v-6.47l-2.53-5.05H655Z" transform="translate(-365.17 -324.66)"/><path class="cls-1" d="M679.34,365.59H663.89L660,361.66l-1.68-3.37V356l9-4.5v3.1l1.68,1.68h3.93l1.69-.84.85-1.69v-2.53l-1.41-1.4-8.71-2-5-5.05v-9.27l7.3-7.3h15.17l3.54,10.67-4.83-1.69H674l-1.68.85-.85,1.68v1.12l1.12,1.13,8.71,2,5.34,5.34v11Z" transform="translate(-365.17 -324.66)"/><path class="cls-1" d="M715.62,335.53h-4.38l-.56.57v23.59l2,5.9H697.76l2-5.9V336.1l-.56-.57h-4.38l-5.84,2,3.76-11.23h25l3.76,11.23Z" transform="translate(-365.17 -324.66)"/><path class="cls-1" d="M741.87,365.59l.57-4.49-.85-3.38-.56-.56-2.81,1.41h-3.65l-2.8-1.41-.57.56-.84,3.38.56,4.49H718l2.25-4.49,7.86-31.18-.84-3.65h19.1l-.84,3.65,7.86,31.18,2.25,4.49Zm-5.22-29.49-.28-2-.28,2-2.7,11.51.45,1.12,1.12.57h2.81l1.13-.57.45-1.12Z" transform="translate(-365.17 -324.66)"/><path class="cls-1" d="M783.63,365.59H759.19l1.4-4.49V330.76l-1.4-4.49h24.44l7.86,7.86v23.59Zm-3.38-26.4-1.4-2.81L776,335h-3.65l-.56.56v20l.84.84H776l2.81-1.4,1.4-2.81Z" transform="translate(-365.17 -324.66)"/><path class="cls-1" d="M423.34,354.69h-4.23l-4-4v-5.23l-.4-.41h-3.43l-.4.41v5.84l1,3.22h-9.68l1-3.22V329.49l-1-3.22h17.53l5.24,5.24V339l-3.42,3.42,1,1v3l1.42,1.41,2.42.81Zm-5.93-19.6-.89-1.78-1.77-.89H411l-.45.45v5.54l.45.44h3.77l1.77-.88.89-1.77Z" transform="translate(-365.17 -324.66)"/><path class="cls-1" d="M449.53,354.48H437.64l-.81,1.62h-3.22l1.69-3.35-3.51-3.5V331.51l5.24-5.24h11.49l.81-1.61h3.22l-1.53,3.1,3.75,3.75v17.74Zm-4.7-22.73h-2.66l-1.77.89-.89,1.77v8.87l-.22,1.11,6.07-12.11Zm-3.76,16.19.66.66h2.66l1.77-.89.89-1.77v-9.31l.22-1.11Z" transform="translate(-365.17 -324.66)"/><path class="cls-1" d="M478,354.48H460.49l1-3.22V329.49l-1-3.22H478l5.65,5.64v16.93Zm-2.42-18.94-1-2-2-1H470l-.4.4v14.31l.6.6h2.42l2-1,1-2Z" transform="translate(-365.17 -324.66)"/><path class="cls-1" d="M510.89,354.69h-4.24l-4-4v-5.23l-.4-.41h-3.43l-.4.41v5.84l1,3.22h-9.67l1-3.22V329.49l-1-3.22h17.53l5.24,5.24V339l-3.42,3.42,1,1v3l1.41,1.41,2.42.81Zm-6.25-19.55-.8-1.62-1.62-.8h-3.43l-.4.4v5l.4.4h3.43l1.62-.81.8-1.6Z" transform="translate(-365.17 -324.66)"/></svg>